<svg width="587" height="575" viewBox="0 0 587 575" fill="none" xmlns="http://www.w3.org/2000/svg">
<path d="M0 0H10C66.0052 0 94.0079 0 115.399 10.8993C134.215 20.4867 149.513 35.7847 159.101 54.6009C170 75.9921 170 103.995 170 160V415C170 471.005 170 499.008 159.101 520.399C149.513 539.215 134.215 554.513 115.399 564.101C94.0079 575 66.0052 575 10 575H0V0Z" fill="#6752AA"/>
<rect x="12" y="170" width="170" height="575" rx="85" transform="rotate(-90 12 170)" fill="#6752AA"/>
<rect x="417" width="170" height="575" rx="85" fill="#6752AA"/>
<rect y="575" width="170" height="575" rx="85" transform="rotate(-90 0 575)" fill="#6752AA"/>
</svg>
