<svg width="300" height="300" viewBox="0 0 689 709" fill="none" xmlns="http://www.w3.org/2000/svg">
<g filter="url(#filter0_d_245_45)">
<path fill-rule="evenodd" clip-rule="evenodd" d="M341.911 117.827C325.804 112.907 308.297 108.8 289.337 105.733C262.9 101.427 233.608 99.0133 201.228 99.0133H35.7413H31.356H11.9413H4V128.173V131.507V205.88V529.107V544.787V553.973H13.1947H32.632H41.3586H60.796H69.9787V544.787V529.107V159.867H202.481C230.304 159.867 255.039 161.813 276.959 165.293C300.577 169.027 321.191 174.613 338.951 181.453H338.991L341.911 182.587V117.827ZM224.949 638.253H301.404C315.551 638.253 329.044 637.773 341.911 636.813V699.693C328.897 700.533 315.404 700.96 301.404 700.96H196.352H194.233H187.601H168.165H158.983V691.773V672.187V330.973V314.667V305.48H168.165H187.601H196.352H215.767H224.949V314.667V330.973V638.253ZM341.911 182.587C359.604 189.653 374.711 198.147 387.524 207.427C402.631 218.36 414.577 230.573 423.871 242.933C431.231 252.707 437.137 262.827 441.737 272.613C447.271 284.36 451.071 295.84 453.631 306.16C455.484 313.747 456.737 320.907 457.524 327.053C458.644 335.947 458.897 343.093 458.897 347.32H458.924L458.831 351.8L458.577 357.293H458.551L458.417 359.187L457.644 369.053H467.564H515.164H524.337V359.853V359.733L524.711 352.8V352.493L524.817 347.453L524.844 347.32C524.844 342.96 524.617 335.893 523.657 326.627C522.671 317.6 520.924 306.52 517.897 294.24C514.591 280.933 509.644 266.147 502.471 250.947C496.457 238.213 488.751 225 479.057 212.107C466.217 195.027 449.311 177.027 427.951 160.827C410.244 147.387 389.377 135.213 365.244 125.88C357.817 123 350.031 120.32 341.911 117.827V182.587ZM341.911 636.813C359.884 635.493 376.657 633.307 392.297 630.347C421.231 624.88 446.377 616.787 468.097 606.827C491.684 596.027 511.644 582.84 528.391 568.307C547.404 551.827 562.404 533.533 574.177 514.88C583.524 500.08 590.977 484.827 596.871 469.973H596.831C603.884 452.107 608.724 434.813 611.951 419.293C614.991 404.8 616.711 391.8 617.644 381.147C618.564 370.827 618.751 362.28 618.751 356.907C618.751 222.28 576.497 124.307 449.257 67.9332V61.9999V52.1866V40.08V13.4933V-8.35609e-05L461.844 4.97318C625.311 69.7465 684.711 188.6 684.711 356.907C684.711 362.92 684.457 372.747 683.297 385.613H683.351C682.271 397.973 680.271 413.213 676.684 430.28C673.124 447.28 668.004 466.013 660.737 485.213C653.444 504.48 643.857 524.533 631.391 544.28C617.537 566.187 600.111 588.533 578.364 608.933C556.524 629.387 530.177 648.08 498.537 662.64C471.937 674.893 441.697 684.787 407.417 691.413C387.084 695.36 365.271 698.16 341.911 699.693V636.813Z" fill="url(#paint0_linear_245_45)"/>
</g>
<defs>
<filter id="filter0_d_245_45" x="0" y="0" width="688.711" height="708.96" filterUnits="userSpaceOnUse" color-interpolation-filters="sRGB">
<feFlood flood-opacity="0" result="BackgroundImageFix"/>
<feColorMatrix in="SourceAlpha" type="matrix" values="0 0 0 0 0 0 0 0 0 0 0 0 0 0 0 0 0 0 127 0" result="hardAlpha"/>
<feOffset dy="4"/>
<feGaussianBlur stdDeviation="2"/>
<feComposite in2="hardAlpha" operator="out"/>
<feColorMatrix type="matrix" values="0 0 0 0 0 0 0 0 0 0 0 0 0 0 0 0 0 0 0.25 0"/>
<feBlend mode="normal" in2="BackgroundImageFix" result="effect1_dropShadow_245_45"/>
<feBlend mode="normal" in="SourceGraphic" in2="effect1_dropShadow_245_45" result="shape"/>
</filter>
<linearGradient id="paint0_linear_245_45" x1="344.355" y1="700.96" x2="344.355" y2="-6.10352e-05" gradientUnits="userSpaceOnUse">
<stop stop-color="#5C7AE6"/>
<stop offset="1" stop-color="#8A9EED"/>
</linearGradient>
</defs>
</svg>
